{"title":"Match of the Day - 31st January 2015 - hdtv x264","uid":11673744,"size":957709841,"categoryP":"video","categoryS":"tv_shows","magnet":"?xt=urn:btih:c8b46d3bcb887ef519d375c85bc40aecfd1b854d&amp;dn=Match+of+the+Day+-+31st+January+2015+-+hdtv+x264&amp;tr=udp%3A%2F%2Ftracker.openbittorrent.com%3A80&amp;tr=udp%3A%2F%2Fopen.demonii.com%3A1337&amp;tr=udp%3A%2F%2Ftracker.coppersurfer.tk%3A6969&amp;tr=udp%3A%2F%2Fexodus.desync.com%3A6969","seeders":4,"leechers":0,"uploader":"rugbybill","files":2,"time":1422753564,"description":"SPORT: Match of the Day\nOn: BBC 1 HD\nDate: Saturday 31st January 2015\nTime: 22:30 to 00:00\n\nGary Lineker presents highlights of eight Premier League games, which include\n  the standout clash between title-chasing duo Chelsea and Manchester City at\n  Stamford Bridge. Chelsea are unbeaten in the Premier League against City since\n  Jose Mourinho returned to manage the club ahead of the 2013-14 season.\n  Manchester United host Leicester City at Old Trafford looking to avenge their\n  5-3 defeat at the Kingpower Stadium earlier this season, and another Foxes\n  victory would see them complete a first league double over the Red Devils since\n  the 1973-74 season. Liverpool take on West Ham at Anfield hoping to maintain a\n  proud unbeaten record - they have never lost to the Hammers in 18 previous\n  Premier League home games. Elsewhere, Crystal Palace entertain Everton having\n  won each of the last two encounters 3-2, West Brom meet Tottenham looking to\n  achieve a first Premier League double over Spurs, and Mark Hughes's Stoke take\n  on his former club QPR. The studio experts are Alan Shearer and Danny Murphy.\n\nRunning sequence:\n\nChelsea v Man City\nWest Brom v Spurs\nMan Utd v Leicester\nHull v Newcastle\nStoke v QPR\nLiverpool v West Ham\nSunderland v Burnley\nPalace v Everton\n\nGeneral\nComplete name               : 2015.01.31.MOTD.hdtv.x264.mp4\nFormat                      : MPEG-4\nFormat profile              : Base Media / Version 2\nCodec ID                    : mp42\nFile size                   : 913 MiB\nDuration                    : 1h 29mn\nOverall bit rate mode       : Variable\nOverall bit rate            : 1 430 Kbps\nWriting application         : #YGFD\n\nVideo\nID                          : 1\nFormat                      : AVC\nFormat/Info                 : Advanced Video Codec\nFormat profile              : &lt;a class=&quot;__cf_email__&quot; href=&quot;/cdn-cgi/l/email-protection&quot; data-cfemail=&quot;95ddfcf2fdd5d9a6bba5&quot;&gt;[email&amp;#160;protected]&lt;/a&gt;&lt;script cf-hash='f9e31' type=&quot;text/javascript&quot;&gt;\n/* &lt;![CDATA[ */!function(){try{var t=&quot;currentScript&quot;in document?document.currentScript:function(){for(var t=document.getElementsByTagName(&quot;script&quot;),e=t.length;e--;)if(t[e].getAttribute(&quot;cf-hash&quot;))return t[e]}();if(t&amp;&amp;t.previousSibling){var e,r,n,i,c=t.previousSibling,a=c.getAttribute(&quot;data-cfemail&quot;);if(a){for(e=&quot;&quot;,r=parseInt(a.substr(0,2),16),n=2;a.length-n;n+=2)i=parseInt(a.substr(n,2),16)^r,e+=String.fromCharCode(i);e=document.createTextNode(e),c.parentNode.replaceChild(e,c)}}}catch(u){}}();/* ]]&gt; */&lt;/script&gt;\nFormat settings, CABAC      : Yes\nFormat settings, ReFrames   : 4 frames\nCodec ID                    : avc1\nCodec ID/Info               : Advanced Video Coding\nDuration                    : 1h 29mn\nBit rate                    : 1 300 Kbps\nWidth                       : 704 pixels\nHeight                      : 400 pixels\nDisplay aspect ratio        : 16:9\nFrame rate mode             : Constant\nFrame rate                  : 25.000 fps\nColor space                 : YUV\nChroma subsampling          : 4:2:0\nBit depth                   : 8 bits\nScan type                   : Progressive\nBits/(Pixel*Frame)          : 0.185\nStream size                 : 829 MiB (91%)\nWriting library             : x264 core 130 r2273 b3065e6\nEncoding settings           : cabac=1 / ref=3 / deblock=1:0:0 /\n  analyse=0x3:0x113 / me=hex / subme=7 / psy=1 / psy_rd=1.00:0.00 / mixed_ref=1 /\n  me_range=16 / chroma_me=1 / trellis=1 / 8x8dct=1 / cqm=0 / deadzone=21,11 /\n  fast_pskip=1 / chroma_qp_offset=-2 / threads=6 / lookahead_threads=1 /\n  sliced_threads=0 / nr=0 / decimate=1 / interlaced=0 / bluray_compat=0 /\n  constrained_intra=0 / bframes=3 / b_pyramid=2 / b_adapt=1 / b_bias=0 / direct=1\n  / weightb=1 / open_gop=0 / weightp=2 / keyint=250 / keyint_min=25 / scenecut=40\n  / intra_refresh=0 / rc_lookahead=40 / rc=abr / mbtree=1 / bitrate=1300 /\n  ratetol=1.0 / qcomp=0.60 / qpmin=0 / qpmax=69 / qpstep=4 / vbv_maxrate=12500 /\n  vbv_bufsize=12500 / nal_hrd=none / ip_ratio=1.40 / aq=1:1.00\n\nAudio\nID                          : 2\nFormat                      : AAC\nFormat/Info                 : Advanced Audio Codec\nFormat profile              : LC\nCodec ID                    : 40\nDuration                    : 1h 29mn\nBit rate mode               : Variable\nBit rate                    : 128 Kbps\nMaximum bit rate            : 255 Kbps\nChannel(s)                  : 2 channels\nChannel positions           : Front: L R\nSampling rate               : 48.0 KHz\nCompression mode            : Lossy\nStream size                 : 81.7 MiB (9%)\nTitle                       : Stereo\nLanguage                    : English","torrent":{"xt":"urn:btih:c8b46d3bcb887ef519d375c85bc40aecfd1b854d","amp;dn":"Match+of+the+Day+-+31st+January+2015+-+hdtv+x264","amp;tr":["udp%3A%2F%2Ftracker.openbittorrent.com%3A80","udp%3A%2F%2Fopen.demonii.com%3A1337","udp%3A%2F%2Ftracker.coppersurfer.tk%3A6969","udp%3A%2F%2Fexodus.desync.com%3A6969"],"infoHash":"c8b46d3bcb887ef519d375c85bc40aecfd1b854d","infoHashBuffer":{"type":"Buffer","data":[200,180,109,59,203,136,126,245,25,211,117,200,91,196,10,236,253,27,133,77]},"announce":[],"urlList":[]}}